<svg version="1.1" id="Warstwa_1" xmlns="http://www.w3.org/2000/svg" xmlns:xlink="http://www.w3.org/1999/xlink" x="0px" y="0px"
	 viewBox="0 0 40 38" style="enable-background:new 0 0 40 38;" preserveAspectRatio="xMidYMid meet" xml:space="preserve">
<style type="text/css">
	.st0{fill:#22354C;}
</style>
<path class="st0" d="M20,4c-2.1,0-4,0.8-5.5,2.2C13,7.6,12.1,9.6,12,11.6l0,0.4v2h16v-2c0-2.1-0.8-4-2.2-5.5S22.4,4.1,20.4,4L20,4z
	 M30,22v8h-4v-8H30z M14,22v8h-4v-8H14z M22,22v8h-4v-8H22z M33.7,18H6.3l1.3,16h24.6L33.7,18z M20,0c3.2,0,6.2,1.3,8.5,3.5
	C30.7,5.8,32,8.8,32,12v2h8v4h-2.3l-1.5,18.2c0,0.5-0.3,1-0.6,1.3S34.7,38,34.2,38H5.8c-0.5,0-1-0.2-1.4-0.5
	c-0.4-0.3-0.6-0.8-0.6-1.3L2.3,18H0v-4h8v-2c0-3.2,1.3-6.2,3.5-8.5C13.8,1.3,16.8,0,20,0z"/>
</svg>
