<svg version="1.1" id="Warstwa_1" xmlns="http://www.w3.org/2000/svg" xmlns:xlink="http://www.w3.org/1999/xlink" x="0px" y="0px"
	 viewBox="0 0 40 37" style="enable-background:new 0 0 40 37;" preserveAspectRatio="xMidYMid meet" xml:space="preserve">
<style type="text/css">
	.st0{fill:#22354C;}
</style>
<path class="st0" d="M33.7,6.3c-3-3-7.8-3.1-11-0.3L20,8.4L17.3,6c-3.1-2.8-8-2.7-11,0.3c-3,3-3.1,7.8-0.4,10.9l14,14.1l14-14.1
	C36.8,14.1,36.6,9.3,33.7,6.3z M20,3.1C24.7-1.2,32-1,36.5,3.5C41,8,41.2,15.3,37,20L20,37L3,20C-1.2,15.3-1,8,3.5,3.5
	C8-1,15.3-1.2,20,3.1z"/>
</svg>
