<svg version="1.1" id="Warstwa_1" xmlns="http://www.w3.org/2000/svg" xmlns:xlink="http://www.w3.org/1999/xlink" x="0px" y="0px"
	 viewBox="0 0 162.1 92.2" style="enable-background:new 0 0 162.1 92.2;" preserveAspectRatio="xMidYMid meet" xml:space="preserve">
<style type="text/css">
	.st0{fill:#FFFFFF;}
	.st1{fill:#22354C;}
	.st2{fill:#62BC54;}
	.st3{fill:#8AC758;}
	.st4{fill:#1EA554;}
	.st5{fill:#0F6F41;}
	.st6{fill:#A6D051;}
	.st7{fill:#A9D04D;}
</style>
<rect x="16.7" y="19.2" class="st0" width="33.2" height="57.4"/>
<path class="st1" d="M93.4,24.4c-0.5-2-2.7-2.9-4.7-2.8c-1.6,0.1-3.3,0.6-4.2,1.7c-0.5,0.6-0.6,1.3-0.6,2c0.1,2.3,2.8,2.6,5.2,2.8
	c3.2,0.4,7.1,1.2,8,4.7c0.1,0.5,0.2,1,0.2,1.4c0,4.3-4.4,6.8-8.6,6.8c-3.6,0-7.9-2-8.3-6l0-0.6l3.4-0.1l0,0.5v-0.1
	c0.2,2.1,2.8,3.1,5,3.1c2.5,0,5.2-1.3,5.2-3.6c0-0.2,0-0.5-0.1-0.7c-0.4-1.7-2.8-2-5.1-2.2c-3.6-0.3-7.8-1.1-8.2-5.7v0
	c-0.1-1.5,0.3-3,1.2-4.2c1.6-1.9,4.3-3,7-3c3.6,0,7.3,1.8,7.9,5.9L93.4,24.4z"/>
<polygon class="st1" points="103.6,37.7 114.4,37.7 114.4,40.9 100.3,40.9 100.3,18.7 114.4,18.7 114.4,21.9 103.6,21.9 103.6,28.1 
	114.1,28.1 114.1,31.4 103.6,31.4 "/>
<polygon class="st1" points="120.7,37.7 131.6,37.7 131.6,40.9 117.4,40.9 117.4,18.7 120.7,18.7 "/>
<polygon class="st2" points="0,18.4 16.7,9.2 16.7,27.7 0,18.4 16.7,9.2 16.7,27.7 "/>
<polygon class="st3" points="33.3,18.4 16.7,9.2 16.7,27.7 33.3,18.4 16.7,9.2 16.7,27.7 "/>
<polygon class="st2" points="49.9,9.2 33.3,0 33.3,18.4 49.9,9.2 33.3,0 33.3,18.4 "/>
<polygon class="st4" points="16.7,9.2 33.3,18.4 33.3,0 16.7,9.2 33.3,18.4 33.3,0 "/>
<polygon class="st3" points="16.7,46.1 0,36.9 0,55.3 16.7,46.1 0,36.9 0,55.3 "/>
<polygon class="st3" points="33.3,73.7 49.9,83 49.9,64.5 33.3,73.7 49.9,83 49.9,64.5 "/>
<polygon class="st2" points="49.9,83 33.3,73.7 33.3,92.2 49.9,83 33.3,73.7 33.3,92.2 "/>
<polygon class="st5" points="16.7,83 33.3,92.2 33.3,73.7 16.7,83 33.3,92.2 33.3,73.7 "/>
<polygon class="st4" points="66.5,73.7 49.9,64.5 49.9,83 66.5,73.7 49.9,64.5 49.9,83 "/>
<polygon class="st5" points="49.9,64.5 66.5,73.7 66.5,55.3 49.9,64.5 66.5,73.7 66.5,55.3 "/>
<polygon class="st6" points="66.5,18.4 49.9,9.2 49.9,27.7 66.5,18.4 49.9,9.2 49.9,27.7 "/>
<polygon class="st4" points="66.5,55.3 49.9,46.1 49.9,64.5 66.5,55.3 49.9,46.1 49.9,64.5 "/>
<polygon class="st3" points="66.5,36.9 49.9,27.7 49.9,46.1 66.5,36.9 49.9,27.7 49.9,46.1 "/>
<polygon class="st2" points="49.9,27.7 66.5,36.9 66.5,18.4 49.9,27.7 66.5,36.9 66.5,18.4 "/>
<polygon class="st3" points="33.3,18.4 49.9,9.2 49.9,27.7 33.3,18.4 49.9,9.2 49.9,27.7 "/>
<polygon class="st7" points="33.3,36.9 49.9,27.7 49.9,46.1 33.3,36.9 49.9,27.7 49.9,46.1 "/>
<polygon class="st3" points="33.3,55.3 16.7,46.1 16.7,64.5 33.3,55.3 16.7,46.1 16.7,64.5 "/>
<polygon class="st4" points="33.3,73.7 16.7,64.5 16.7,83 33.3,73.7 16.7,64.5 16.7,83 "/>
<polygon class="st2" points="0,36.9 16.7,27.7 16.7,46.1 0,36.9 16.7,27.7 16.7,46.1 "/>
<polygon class="st4" points="16.7,27.7 0,36.9 0,18.4 16.7,27.7 0,36.9 0,18.4 "/>
<polygon class="st7" points="0,55.3 16.7,46.1 16.7,64.5 0,55.3 16.7,46.1 16.7,64.5 "/>
<polygon class="st2" points="0,73.7 16.7,64.5 16.7,83 0,73.7 16.7,64.5 16.7,83 "/>
<polygon class="st3" points="16.7,64.5 0,73.7 0,55.3 16.7,64.5 0,73.7 0,55.3 "/>
<polygon class="st2" points="49.9,46.1 66.5,55.3 66.5,36.9 49.9,46.1 66.5,55.3 66.5,36.9 "/>
<polygon class="st1" points="90.7,51.8 85.8,51.8 85.8,72.9 90.7,72.9 90.7,73.4 80.4,73.4 80.4,72.9 85.3,72.9 85.3,51.8 
	80.4,51.8 80.4,51.3 90.7,51.3 "/>
<polygon class="st1" points="94.3,73.4 94.3,51.3 94.8,51.3 110.1,72.5 110.1,51.3 110.6,51.3 110.6,73.4 110,73.4 94.8,52.3 
	94.8,73.4 "/>
<path class="st1" d="M134.3,57.9c-1.6-3.9-5.5-6.3-9.8-6.3c-3,0-5.7,1.2-7.6,3.2c-1.9,2-3.1,4.6-3.1,7.6c0,3,1.2,5.6,3.1,7.6
	c2,2,4.6,3.2,7.6,3.2c4.6,0,9.5-3.5,10.4-8.2h-10.2v-0.5h10.8c-0.1,0.8-0.2,1.5-0.6,2.2c-1.5,4-6.3,7-10.4,7c-3.1,0-6-1.3-8-3.4
	c-2-2-3.3-4.8-3.3-8c0-3.1,1.3-5.9,3.3-8c2.1-2,4.9-3.3,8-3.3c4.5,0,8.8,2.6,10.3,6.8H134.3z"/>
<path class="st1" d="M142,54.3c2.1-2.1,5.1-3.4,8.3-3.4c3.2,0,6.2,1.3,8.3,3.4c2.1,2,3.5,4.9,3.5,8c0,3.1-1.4,6-3.5,8
	c-2.1,2.1-5.1,3.4-8.3,3.4c-3.2,0-6.2-1.3-8.3-3.4c-2.1-2-3.5-4.9-3.5-8C138.5,59.2,139.9,56.4,142,54.3z M158.2,54.7
	c-2-2-4.8-3.2-8-3.2s-5.9,1.3-7.9,3.2c-2,2-3.3,4.7-3.3,7.7c0,3,1.3,5.7,3.3,7.6c2,2,4.8,3.2,7.9,3.2s5.9-1.2,8-3.2
	c2-2,3.3-4.7,3.3-7.6C161.5,59.4,160.2,56.7,158.2,54.7z"/>
<polygon class="st1" points="137.6,37.7 148.5,37.7 148.5,40.9 134.3,40.9 134.3,18.7 137.6,18.7 "/>
</svg>
