<svg version="1.1" id="Warstwa_1" xmlns="http://www.w3.org/2000/svg" xmlns:xlink="http://www.w3.org/1999/xlink" x="0px" y="0px"
	 viewBox="0 0 40 40" style="enable-background:new 0 0 40 40;" xml:space="preserve">
<style type="text/css">
	.st0{fill:#22354C;}
</style>
<path class="st0" d="M14.9,25.2c-5.7,0-10.3-4.6-10.3-10.3S9.2,4.6,14.9,4.6s10.3,4.6,10.3,10.3S20.6,25.2,14.9,25.2z M28.6,25.2
	h-1.8l-0.6-0.6c2.2-2.6,3.6-6,3.6-9.7C29.7,6.7,23.1,0,14.9,0S0,6.7,0,14.9s6.7,14.9,14.9,14.9c3.7,0,7.1-1.3,9.7-3.6l0.6,0.6v1.8
	L36.6,40l3.4-3.4L28.6,25.2z"/>
</svg>
